<svg xmlns="http://www.w3.org/2000/svg" viewBox="0 0 980 312" role="img" aria-label="Het storingsplan in zes stappen: kijk wat er gebeurt, één programma of alles, opnieuw proberen, controleer de verbinding, sla op en herstart, vraag hulp"><rect x="0" y="0" width="980" height="312" rx="18" fill="#FFF7E8"/><g opacity="1"><line x1="148.0" y1="140" x2="172.0" y2="140" stroke="#0B0D0F" stroke-width="4" stroke-dasharray="8 6"/><path d="M 172.0 132 L 184.0 140 L 172.0 148 Z" fill="#0B0D0F"/></g><g opacity="1"><rect x="39" y="96" width="92" height="62" rx="6" fill="#C9CED3" stroke="#0B0D0F" stroke-width="4"/><rect x="47" y="104" width="76" height="46" rx="3" fill="#FFFFFF" stroke="#0B0D0F" stroke-width="2"/><path d="M 27 160 h 116 l -8 12 h -100 z" fill="#5B6068" stroke="#0B0D0F" stroke-width="3.5" stroke-linejoin="round"/><path d="M 85 108 l 20 34 h -40 z" fill="#FFD33D" stroke="#0B0D0F" stroke-width="3" stroke-linejoin="round"/><line x1="85" y1="120" x2="85" y2="132" stroke="#0B0D0F" stroke-width="4" stroke-linecap="round"/><circle cx="85" cy="138" r="2.5" fill="#0B0D0F"/><circle cx="85" cy="42" r="17" fill="#FFD33D" stroke="#0B0D0F" stroke-width="3"/><text x="85" y="49" text-anchor="middle" font-size="18" font-weight="800" fill="#0B0D0F" font-family="Arial, sans-serif">1</text><text x="85" y="236" text-anchor="middle" font-size="19" font-weight="800" fill="#0B0D0F" font-family="Arial, sans-serif">Kijk</text><text x="85" y="260" text-anchor="middle" font-size="15" font-weight="600" fill="#0B0D0F" font-family="Arial, sans-serif">lees de</text><text x="85" y="281" text-anchor="middle" font-size="15" font-weight="600" fill="#0B0D0F" font-family="Arial, sans-serif">melding</text></g><g opacity="1"><line x1="310.0" y1="140" x2="334.0" y2="140" stroke="#0B0D0F" stroke-width="4" stroke-dasharray="8 6"/><path d="M 334.0 132 L 346.0 140 L 334.0 148 Z" fill="#0B0D0F"/></g><g opacity="1"><rect x="201" y="96" width="92" height="62" rx="6" fill="#C9CED3" stroke="#0B0D0F" stroke-width="4"/><rect x="209" y="104" width="76" height="46" rx="3" fill="#FFFFFF" stroke="#0B0D0F" stroke-width="2"/><path d="M 189 160 h 116 l -8 12 h -100 z" fill="#5B6068" stroke="#0B0D0F" stroke-width="3.5" stroke-linejoin="round"/><rect x="213" y="108" width="32" height="24" rx="2" fill="#9FD3E6" stroke="#0B0D0F" stroke-width="2"/><rect x="249" y="108" width="32" height="24" rx="2" fill="#FFFFFF" stroke="#0B0D0F" stroke-width="2"/><path d="M 257 112 l 16 16 M 273 112 l -16 16" stroke="#D83A2E" stroke-width="3.5" stroke-linecap="round"/><path d="M 221 122 l 6 6 l 10 -12" fill="none" stroke="#2E9D63" stroke-width="3.5" stroke-linecap="round" stroke-linejoin="round"/><circle cx="247" cy="42" r="17" fill="#FFD33D" stroke="#0B0D0F" stroke-width="3"/><text x="247" y="49" text-anchor="middle" font-size="18" font-weight="800" fill="#0B0D0F" font-family="Arial, sans-serif">2</text><text x="247" y="236" text-anchor="middle" font-size="19" font-weight="800" fill="#0B0D0F" font-family="Arial, sans-serif">Eén of alles?</text><text x="247" y="260" text-anchor="middle" font-size="15" font-weight="600" fill="#0B0D0F" font-family="Arial, sans-serif">werkt de rest</text><text x="247" y="281" text-anchor="middle" font-size="15" font-weight="600" fill="#0B0D0F" font-family="Arial, sans-serif">nog wel?</text></g><g opacity="1"><line x1="472.0" y1="140" x2="496.0" y2="140" stroke="#0B0D0F" stroke-width="4" stroke-dasharray="8 6"/><path d="M 496.0 132 L 508.0 140 L 496.0 148 Z" fill="#0B0D0F"/></g><g opacity="1"><path d="M 439 124 A 34 34 0 1 0 443 148" fill="none" stroke="#087EB5" stroke-width="9" stroke-linecap="round"/><path d="M 453 102 L 447 134 L 419 118 Z" fill="#087EB5" stroke="#0B0D0F" stroke-width="2.5" stroke-linejoin="round"/><circle cx="409" cy="42" r="17" fill="#FFD33D" stroke="#0B0D0F" stroke-width="3"/><text x="409" y="49" text-anchor="middle" font-size="18" font-weight="800" fill="#0B0D0F" font-family="Arial, sans-serif">3</text><text x="409" y="236" text-anchor="middle" font-size="19" font-weight="800" fill="#0B0D0F" font-family="Arial, sans-serif">Opnieuw</text><text x="409" y="260" text-anchor="middle" font-size="15" font-weight="600" fill="#0B0D0F" font-family="Arial, sans-serif">sluit en open</text><text x="409" y="281" text-anchor="middle" font-size="15" font-weight="600" fill="#0B0D0F" font-family="Arial, sans-serif">opnieuw</text></g><g opacity="1"><line x1="634.0" y1="140" x2="658.0" y2="140" stroke="#0B0D0F" stroke-width="4" stroke-dasharray="8 6"/><path d="M 658.0 132 L 670.0 140 L 658.0 148 Z" fill="#0B0D0F"/></g><g opacity="1"><path d="M 533 120.4 A 38 38 0 0 1 609 120.4" fill="none" stroke="#087EB5" stroke-width="6" stroke-linecap="round"/><path d="M 546 123.0 A 25 25 0 0 1 596 123.0" fill="none" stroke="#087EB5" stroke-width="6" stroke-linecap="round"/><path d="M 559 125.6 A 12 12 0 0 1 583 125.6" fill="none" stroke="#087EB5" stroke-width="6" stroke-linecap="round"/><circle cx="571" cy="132" r="6" fill="#087EB5"/><path d="M 521 174 q 30 -16 50 0 t 50 0" fill="none" stroke="#0B0D0F" stroke-width="6" stroke-linecap="round"/><rect x="615" y="164" width="16" height="20" rx="3" fill="#FFD33D" stroke="#0B0D0F" stroke-width="3"/><circle cx="571" cy="42" r="17" fill="#FFD33D" stroke="#0B0D0F" stroke-width="3"/><text x="571" y="49" text-anchor="middle" font-size="18" font-weight="800" fill="#0B0D0F" font-family="Arial, sans-serif">4</text><text x="571" y="236" text-anchor="middle" font-size="19" font-weight="800" fill="#0B0D0F" font-family="Arial, sans-serif">Verbinding</text><text x="571" y="260" text-anchor="middle" font-size="15" font-weight="600" fill="#0B0D0F" font-family="Arial, sans-serif">wifi aan?</text><text x="571" y="281" text-anchor="middle" font-size="15" font-weight="600" fill="#0B0D0F" font-family="Arial, sans-serif">kabel erin?</text></g><g opacity="1"><line x1="796.0" y1="140" x2="820.0" y2="140" stroke="#0B0D0F" stroke-width="4" stroke-dasharray="8 6"/><path d="M 820.0 132 L 832.0 140 L 820.0 148 Z" fill="#0B0D0F"/></g><g opacity="1"><rect x="685" y="110" width="42" height="42" rx="4" fill="#087EB5" stroke="#0B0D0F" stroke-width="3.5"/><rect x="693" y="110" width="24" height="14" fill="#FFFFFF" stroke="#0B0D0F" stroke-width="2"/><rect x="695" y="136" width="22" height="16" rx="2" fill="#FFFFFF" stroke="#0B0D0F" stroke-width="2"/><path d="M 755 114 A 26 26 0 1 0 775 114" fill="none" stroke="#0B0D0F" stroke-width="7" stroke-linecap="round" transform="rotate(-20 765 132)"/><line x1="761" y1="100" x2="761" y2="128" stroke="#0B0D0F" stroke-width="7" stroke-linecap="round"/><path d="M 731 132 h 12" stroke="#0B0D0F" stroke-width="4" stroke-linecap="round"/><path d="M 739 126 l 6 6 l -6 6" fill="none" stroke="#0B0D0F" stroke-width="4" stroke-linecap="round" stroke-linejoin="round"/><circle cx="733" cy="42" r="17" fill="#FFD33D" stroke="#0B0D0F" stroke-width="3"/><text x="733" y="49" text-anchor="middle" font-size="18" font-weight="800" fill="#0B0D0F" font-family="Arial, sans-serif">5</text><text x="733" y="236" text-anchor="middle" font-size="19" font-weight="800" fill="#0B0D0F" font-family="Arial, sans-serif">Herstart</text><text x="733" y="260" text-anchor="middle" font-size="15" font-weight="600" fill="#0B0D0F" font-family="Arial, sans-serif">sla eerst</text><text x="733" y="281" text-anchor="middle" font-size="15" font-weight="600" fill="#0B0D0F" font-family="Arial, sans-serif">je werk op</text></g><g opacity="1"><circle cx="871" cy="134" r="15" fill="#F2C9A0" stroke="#0B0D0F" stroke-width="3.5"/><path d="M 847 180 q 0 -30 24 -30 q 24 0 24 30 z" fill="#9FD3E6" stroke="#0B0D0F" stroke-width="3.5"/><circle cx="921" cy="134" r="15" fill="#F2C9A0" stroke="#0B0D0F" stroke-width="3.5"/><path d="M 897 180 q 0 -30 24 -30 q 24 0 24 30 z" fill="#FFD33D" stroke="#0B0D0F" stroke-width="3.5"/><path d="M 889 80 h 44 a 8 8 0 0 1 8 8 v 18 a 8 8 0 0 1 -8 8 h -26 l -12 10 v -10 h -6 a 8 8 0 0 1 -8 -8 v -18 a 8 8 0 0 1 8 -8 z" fill="#FFFFFF" stroke="#0B0D0F" stroke-width="3"/><text x="911" y="104" text-anchor="middle" font-size="22" font-weight="900" fill="#0B0D0F" font-family="Arial, sans-serif">?</text><circle cx="895" cy="42" r="17" fill="#FFD33D" stroke="#0B0D0F" stroke-width="3"/><text x="895" y="49" text-anchor="middle" font-size="18" font-weight="800" fill="#0B0D0F" font-family="Arial, sans-serif">6</text><text x="895" y="236" text-anchor="middle" font-size="19" font-weight="800" fill="#0B0D0F" font-family="Arial, sans-serif">Vraag hulp</text><text x="895" y="260" text-anchor="middle" font-size="15" font-weight="600" fill="#0B0D0F" font-family="Arial, sans-serif">klasgenoot, docent,</text><text x="895" y="281" text-anchor="middle" font-size="15" font-weight="600" fill="#0B0D0F" font-family="Arial, sans-serif">helpdesk</text></g></svg>
